# xmcd
#
# Track frame offsets:
#	150
#	14125
#	25896
#	36899
#	49905
#	64668
#	75760
#	85321
#	98681
#	112936
#	124598
#	136077
#	149132
#	161876
#	173899
#	187984
#	201228
#	212148
#	226544
#	238345
#	249622
#	265213
#	280573
#	293874
#	306103
#
# Disc length: 4245
#
# Revision: 2
# Processed by: cddbd v1.5.1PL0 Copyright (c) Steve Scherf et al.
# Submitted via: EasyCDDAExtractor 4.6.0.1
# Normalized: r1:TDELIM( - )
#
DISCID=62109319
DTITLE=Various Artist - Forever DooWop  Vol 08
DYEAR=1900
DGENRE=Blues
TTITLE0=Sonics - This Broken Heart
TTITLE1=Wheels (Ferris and the) - He Was A Fortune Teller
TTITLE2=Drifters - Oh My Love
TTITLE3=Charms (Otis Williams and the) - Pardon Me
TTITLE4=Flamingos - Golden Teardrops
TTITLE5=Bop-Chords - Castle In The Sky
TTITLE6=Aquatones - You
TTITLE7=Heartbeats - Rockin' And Rollin' Rhythm And Bluesin'
TTITLE8=Channels - The Closer You Are
TTITLE9=Vanguards - Moonlight
TTITLE10=Dominoes - Sixty Minute Man
TTITLE11=Rays - Silhouettes
TTITLE12=Feathers - Why Don't You Write Me
TTITLE13=Four Pharoahs - Give Me Your Love
TTITLE14=Dells - Dreams Of Contentment
TTITLE15=Valentines - Woo Woo Train
TTITLE16=Tru-Tones - Magic
TTITLE17=Three Chuckles - Runaround
TTITLE18=Rivieras - Moonlight Cocktails
TTITLE19=Platters - The Magic Touch
TTITLE20=Orioles - I Cover The Waterfront
TTITLE21=Edsels - Do You Love Me
TTITLE22=Meadowlarks (Don Julian and the) - Heaven And Paradise
TTITLE23=Heartbeats - Your Way
TTITLE24=Harptones - Life Is But A Dream
EXTD=
EXTT0=
EXTT1=
EXTT2=
EXTT3=
EXTT4=
EXTT5=
EXTT6=
EXTT7=
EXTT8=
EXTT9=
EXTT10=
EXTT11=
EXTT12=
EXTT13=
EXTT14=
EXTT15=
EXTT16=
EXTT17=
EXTT18=
EXTT19=
EXTT20=
EXTT21=
EXTT22=
EXTT23=
EXTT24=
PLAYORDER=
